<svg xmlns="http://www.w3.org/2000/svg" viewBox="0 0 1000 750" preserveAspectRatio="xMidYMid slice">
  <defs>
    <filter id="g2"><feTurbulence type="fractalNoise" baseFrequency="0.7" numOctaves="2" stitchTiles="stitch"/><feColorMatrix type="saturate" values="0"/></filter>
    <linearGradient id="bg2" x1="0" y1="0" x2="1" y2="1"><stop offset="0" stop-color="#B9C4CE"/><stop offset="1" stop-color="#8FA3B3"/></linearGradient>
  </defs>
  <rect width="1000" height="750" fill="url(#bg2)"/>
  <rect x="70" y="110" width="360" height="470" rx="8" fill="#FFF" transform="rotate(-3 250 345)"/>
  <rect x="560" y="150" width="360" height="440" rx="8" fill="#FFF" transform="rotate(2.5 740 370)"/>
  <path d="M90 320 Q 240 260, 300 130 T 520 150 T 700 190 T 890 170" fill="none" stroke="#0A0A0A" stroke-width="16" stroke-linecap="round"/>
  <circle cx="300" cy="130" r="30" fill="#C4642F" stroke="#0A0A0A" stroke-width="10"/>
  <circle cx="520" cy="150" r="26" fill="#D8A33B" stroke="#0A0A0A" stroke-width="10"/>
  <circle cx="700" cy="190" r="28" fill="#0A0A0A"/>
  <rect x="610" y="230" width="200" height="120" rx="6" fill="#5D8296" transform="rotate(2.5 710 290)"/>
  <rect x="610" y="380" width="200" height="120" rx="6" fill="#C4642F" transform="rotate(2.5 710 440)"/>
  <text x="760" y="470" font-family="Georgia, serif" font-style="italic" font-size="46" fill="#FFF" transform="rotate(2.5 760 470)">wander</text>
  <g fill="#0A0A0A">
    <rect x="90" y="150" width="120" height="34" rx="6" transform="rotate(-3 150 167)" opacity="0.85"/>
  </g>
  <g stroke="#0A0A0A" stroke-width="7" stroke-linecap="round">
    <line x1="590" y1="130" x2="764" y2="132"/>
    <path d="M764 132 q30 0 30 26"/>
  </g>
  <circle cx="590" cy="130" r="14" fill="#D8A33B"/>
  <rect width="1000" height="750" filter="url(#g2)" opacity="0.07"/>
</svg>